<svg width="144" height="22" viewBox="0 0 144 22" fill="none" xmlns="http://www.w3.org/2000/svg">
<g style="mix-blend-mode:luminosity" opacity="0.7">
<path opacity="0.8" d="M16.5091 20.4478L17.0498 20.2945C18.4976 19.8839 19.3381 18.3786 18.9271 16.9323L15.2566 4.01864C14.8456 2.57236 13.3386 1.73279 11.8907 2.14341L11.3501 2.29672C9.90218 2.70734 9.06168 4.21266 9.47275 5.65895L13.1432 18.5726C13.5543 20.0189 15.0613 20.8585 16.5091 20.4478Z" fill="white"/>
</g>
<path d="M13.6898 1.83007C12.2879 0.954849 10.4267 1.37737 9.5445 2.77772L0.456305 17.246C-0.419884 18.6463 0.00310382 20.5054 1.40501 21.3867C2.80691 22.2679 4.66806 21.8394 5.55029 20.439L14.6445 5.96472C15.5207 4.56437 15.0977 2.70528 13.6958 1.82403L13.6898 1.83007ZM13.1218 5.66292C12.6625 6.39327 11.7017 6.61057 10.9706 6.15183C10.2394 5.6931 10.0219 4.73338 10.4811 4.00302C10.9404 3.27267 11.9011 3.05537 12.6323 3.51411C13.3635 3.97284 13.581 4.93256 13.1218 5.66292Z" fill="white"/>
<path d="M26.9898 0.610829C25.5879 -0.264389 23.7267 0.15813 22.8445 1.55848L13.7503 16.0328C12.8741 17.4331 13.297 19.2922 14.699 20.1735C16.1009 21.0547 17.962 20.6262 18.8442 19.2258L27.9385 4.75152C28.8147 3.35117 28.3917 1.49208 26.9898 0.610829ZM17.9137 17.9884C17.4544 18.7188 16.4936 18.9361 15.7625 18.4773C15.0313 18.0186 14.8138 17.0589 15.273 16.3285C15.7323 15.5982 16.693 15.3809 17.4242 15.8396C18.1554 16.2984 18.3729 17.2581 17.9137 17.9884Z" fill="white"/>
<path d="M47.8908 19.9335L38.2225 7.5959V19.9335H35.3945V2.79126H37.8599L47.5041 15.0805V2.79126H50.3562V19.9274H47.8908V19.9335Z" fill="white"/>
<path d="M58.6228 20.1747C55.0213 20.1747 52.4351 17.5189 52.4351 13.8973C52.4351 10.2757 54.9246 7.61987 58.6469 7.61987C62.3692 7.61987 64.9313 10.4447 64.6896 14.5492H55.0697C55.1664 16.3841 56.5683 17.8328 58.7195 17.8328C60.0488 17.8328 61.209 17.3016 61.765 16.1427H64.5446C63.8678 18.4122 61.6924 20.1747 58.6228 20.1747ZM55.1724 12.666H61.8435C61.4326 10.7103 60.0549 9.84112 58.5805 9.84112C56.9127 9.84112 55.535 10.8069 55.1724 12.666Z" fill="white"/>
<path d="M69.7475 13.9215L65.2034 7.86133H68.3697L71.4153 11.9175L74.4608 7.86133H77.6513L73.1072 13.9215L77.9172 19.9333H74.7025L71.4394 15.853L68.1764 19.9333H64.9375L69.7475 13.9215Z" fill="white"/>
<path d="M83.9775 7.61987C85.7178 7.61987 87.168 8.5132 87.8448 9.47896V7.86131H90.5036V19.9333H87.8448V18.3156C87.168 19.2814 85.7178 20.1747 83.9775 20.1747C80.6661 20.1747 78.1523 17.3499 78.1523 13.8973C78.1523 10.4447 80.6661 7.61987 83.9775 7.61987ZM84.4609 10.0343C82.3097 10.0343 80.8595 11.7243 80.8595 13.8973C80.8595 16.0703 82.3097 17.7603 84.4609 17.7603C86.6121 17.7603 88.0624 16.0703 88.0624 13.8973C88.0624 11.7243 86.6121 10.0343 84.4609 10.0343Z" fill="white"/>
<path d="M93.8696 7.86144H96.5284V10.0103C96.9877 8.63405 98.3412 7.74072 99.719 7.74072C100.057 7.74072 100.396 7.76487 100.758 7.8373V10.5656C100.299 10.4207 99.9123 10.3483 99.4289 10.3483C97.9061 10.3483 96.5284 11.6279 96.5284 14.0423V19.9334H93.8696V7.86144Z" fill="white"/>
<path d="M108.318 20.1747C104.74 20.1747 101.985 17.3982 101.985 13.8973C101.985 10.3964 104.74 7.61987 108.318 7.61987C111.895 7.61987 114.65 10.3964 114.65 13.8973C114.65 17.3982 111.895 20.1747 108.318 20.1747ZM108.318 17.712C110.445 17.712 111.943 16.0461 111.943 13.8973C111.943 11.7485 110.445 10.0826 108.318 10.0826C106.191 10.0826 104.668 11.7485 104.668 13.8973C104.668 16.0461 106.166 17.712 108.318 17.712Z" fill="white"/>
<path d="M119.756 19.9334H117.098V1.82544H119.756V9.47907C120.433 8.51331 121.908 7.61999 123.648 7.61999C126.959 7.61999 129.473 10.4448 129.473 13.8974C129.473 17.35 126.959 20.1748 123.648 20.1748C121.908 20.1748 120.433 19.2815 119.756 18.3158V19.9334ZM123.158 10.0344C121.007 10.0344 119.533 11.7245 119.533 13.8974C119.533 16.0704 121.007 17.7604 123.158 17.7604C125.31 17.7604 126.76 16.0704 126.76 13.8974C126.76 11.7245 125.285 10.0344 123.158 10.0344Z" fill="white"/>
<path d="M137.395 20.1747C133.818 20.1747 131.062 17.3982 131.062 13.8973C131.062 10.3964 133.818 7.61987 137.395 7.61987C140.973 7.61987 143.728 10.3964 143.728 13.8973C143.728 17.3982 140.973 20.1747 137.395 20.1747ZM137.395 17.712C139.522 17.712 141.021 16.0461 141.021 13.8973C141.021 11.7485 139.522 10.0826 137.395 10.0826C135.268 10.0826 133.745 11.7485 133.745 13.8973C133.745 16.0461 135.244 17.712 137.395 17.712Z" fill="white"/>
</svg>
